<?xml version="1.0" encoding="UTF-8" standalone="no"?>
<!DOCTYPE svg PUBLIC "-//W3C//DTD SVG 1.1//EN"
 "http://www.w3.org/Graphics/SVG/1.1/DTD/svg11.dtd">
<!-- Generated by graphviz version 2.47.3 (20210619.1520)
 -->
<!-- Title: dependencies Pages: 1 -->
<svg width="402pt" height="174pt"
 viewBox="0.00 0.00 402.00 173.80" xmlns="http://www.w3.org/2000/svg" xmlns:xlink="http://www.w3.org/1999/xlink">
<g id="graph0" class="graph" transform="scale(1 1) rotate(0) translate(4 169.8)">
<title>dependencies</title>
<polygon fill="white" stroke="transparent" points="-4,4 -4,-169.8 398,-169.8 398,4 -4,4"/>
<text text-anchor="middle" x="197" y="-8.2" font-family="sans-serif" font-size="14.00">dependencies</text>
<g id="clust1" class="cluster">
<title>cluster_CustomValidatorsModule</title>
<polygon fill="none" stroke="black" stroke-dasharray="1,5" points="8,-32.8 8,-157.8 386,-157.8 386,-32.8 8,-32.8"/>
</g>
<g id="clust6" class="cluster">
<title>cluster_CustomValidatorsModule_providers</title>
<polygon fill="none" stroke="black" points="16,-40.8 16,-92.8 378,-92.8 378,-40.8 16,-40.8"/>
</g>
<!-- hasValidSignatures -->
<g id="node1" class="node">
<title>hasValidSignatures</title>
<ellipse fill="#fdb462" stroke="black" cx="284" cy="-66.8" rx="86.25" ry="18"/>
<text text-anchor="middle" x="284" y="-62.6" font-family="Times,serif" font-size="14.00">hasValidSignatures</text>
</g>
<!-- CustomValidatorsModule -->
<g id="node3" class="node">
<title>CustomValidatorsModule</title>
<polygon fill="#8dd3c7" stroke="black" points="273.93,-149.8 270.93,-153.8 249.93,-153.8 246.93,-149.8 112.07,-149.8 112.07,-113.8 273.93,-113.8 273.93,-149.8"/>
<text text-anchor="middle" x="193" y="-127.6" font-family="Times,serif" font-size="14.00">CustomValidatorsModule</text>
</g>
<!-- hasValidSignatures&#45;&gt;CustomValidatorsModule -->
<g id="edge1" class="edge">
<title>hasValidSignatures&#45;&gt;CustomValidatorsModule</title>
<path fill="none" stroke="black" d="M235.79,-81.88C235.79,-81.88 235.79,-103.56 235.79,-103.56"/>
<polygon fill="black" stroke="black" points="232.29,-103.56 235.79,-113.56 239.29,-103.56 232.29,-103.56"/>
</g>
<!-- isValidChallenge -->
<g id="node2" class="node">
<title>isValidChallenge</title>
<ellipse fill="#fdb462" stroke="black" cx="102" cy="-66.8" rx="78.17" ry="18"/>
<text text-anchor="middle" x="102" y="-62.6" font-family="Times,serif" font-size="14.00">isValidChallenge</text>
</g>
<!-- isValidChallenge&#45;&gt;CustomValidatorsModule -->
<g id="edge2" class="edge">
<title>isValidChallenge&#45;&gt;CustomValidatorsModule</title>
<path fill="none" stroke="black" d="M146.19,-81.88C146.19,-81.88 146.19,-103.56 146.19,-103.56"/>
<polygon fill="black" stroke="black" points="142.69,-103.56 146.19,-113.56 149.69,-103.56 142.69,-103.56"/>
</g>
</g>
</svg>
