<?xml version="1.0" encoding="UTF-8" standalone="no"?>
<!DOCTYPE svg PUBLIC "-//W3C//DTD SVG 1.1//EN"
 "http://www.w3.org/Graphics/SVG/1.1/DTD/svg11.dtd">
<!-- Generated by graphviz version 2.47.3 (20210619.1520)
 -->
<!-- Title: dependencies Pages: 1 -->
<svg width="493pt" height="174pt"
 viewBox="0.00 0.00 493.00 173.80" xmlns="http://www.w3.org/2000/svg" xmlns:xlink="http://www.w3.org/1999/xlink">
<g id="graph0" class="graph" transform="scale(1 1) rotate(0) translate(4 169.8)">
<title>dependencies</title>
<polygon fill="white" stroke="transparent" points="-4,4 -4,-169.8 489,-169.8 489,4 -4,4"/>
<text text-anchor="middle" x="242.5" y="-8.2" font-family="sans-serif" font-size="14.00">dependencies</text>
<g id="clust1" class="cluster">
<title>cluster_AuthModule</title>
<polygon fill="none" stroke="black" stroke-dasharray="1,5" points="8,-32.8 8,-157.8 477,-157.8 477,-32.8 8,-32.8"/>
</g>
<g id="clust6" class="cluster">
<title>cluster_AuthModule_providers</title>
<polygon fill="none" stroke="black" points="16,-40.8 16,-92.8 469,-92.8 469,-40.8 16,-40.8"/>
</g>
<!-- ChallengeService -->
<g id="node1" class="node">
<title>ChallengeService</title>
<ellipse fill="#fdb462" stroke="black" cx="382" cy="-66.8" rx="79.29" ry="18"/>
<text text-anchor="middle" x="382" y="-62.6" font-family="Times,serif" font-size="14.00">ChallengeService</text>
</g>
<!-- AuthModule -->
<g id="node4" class="node">
<title>AuthModule</title>
<polygon fill="#8dd3c7" stroke="black" points="271.55,-149.8 268.55,-153.8 247.55,-153.8 244.55,-149.8 184.45,-149.8 184.45,-113.8 271.55,-113.8 271.55,-149.8"/>
<text text-anchor="middle" x="228" y="-127.6" font-family="Times,serif" font-size="14.00">AuthModule</text>
</g>
<!-- ChallengeService&#45;&gt;AuthModule -->
<g id="edge1" class="edge">
<title>ChallengeService&#45;&gt;AuthModule</title>
<path fill="none" stroke="black" d="M382,-84.91C382,-104.14 382,-131.8 382,-131.8 382,-131.8 281.72,-131.8 281.72,-131.8"/>
<polygon fill="black" stroke="black" points="281.72,-128.3 271.72,-131.8 281.72,-135.3 281.72,-128.3"/>
</g>
<!-- JwtStrategy -->
<g id="node2" class="node">
<title>JwtStrategy</title>
<ellipse fill="#fdb462" stroke="black" cx="228" cy="-66.8" rx="56.76" ry="18"/>
<text text-anchor="middle" x="228" y="-62.6" font-family="Times,serif" font-size="14.00">JwtStrategy</text>
</g>
<!-- JwtStrategy&#45;&gt;AuthModule -->
<g id="edge2" class="edge">
<title>JwtStrategy&#45;&gt;AuthModule</title>
<path fill="none" stroke="black" d="M228,-84.91C228,-84.91 228,-103.79 228,-103.79"/>
<polygon fill="black" stroke="black" points="224.5,-103.79 228,-113.79 231.5,-103.79 224.5,-103.79"/>
</g>
<!-- TokenService -->
<g id="node3" class="node">
<title>TokenService</title>
<ellipse fill="#fdb462" stroke="black" cx="89" cy="-66.8" rx="64.83" ry="18"/>
<text text-anchor="middle" x="89" y="-62.6" font-family="Times,serif" font-size="14.00">TokenService</text>
</g>
<!-- TokenService&#45;&gt;AuthModule -->
<g id="edge3" class="edge">
<title>TokenService&#45;&gt;AuthModule</title>
<path fill="none" stroke="black" d="M89,-84.91C89,-104.14 89,-131.8 89,-131.8 89,-131.8 174.4,-131.8 174.4,-131.8"/>
<polygon fill="black" stroke="black" points="174.4,-135.3 184.4,-131.8 174.4,-128.3 174.4,-135.3"/>
</g>
</g>
</svg>
