<?xml version="1.0" encoding="UTF-8" standalone="no"?>
<!DOCTYPE svg PUBLIC "-//W3C//DTD SVG 1.1//EN"
 "http://www.w3.org/Graphics/SVG/1.1/DTD/svg11.dtd">
<!-- Generated by graphviz version 2.47.3 (20210619.1520)
 -->
<!-- Title: dependencies Pages: 1 -->
<svg width="516pt" height="242pt"
 viewBox="0.00 0.00 516.00 241.80" xmlns="http://www.w3.org/2000/svg" xmlns:xlink="http://www.w3.org/1999/xlink">
<g id="graph0" class="graph" transform="scale(1 1) rotate(0) translate(4 237.8)">
<title>dependencies</title>
<polygon fill="white" stroke="transparent" points="-4,4 -4,-237.8 512,-237.8 512,4 -4,4"/>
<text text-anchor="middle" x="254" y="-8.2" font-family="sans-serif" font-size="14.00">dependencies</text>
<g id="clust1" class="cluster">
<title>cluster_AppModule</title>
<polygon fill="none" stroke="black" stroke-dasharray="1,5" points="8,-32.8 8,-225.8 346,-225.8 346,-32.8 8,-32.8"/>
</g>
<g id="clust3" class="cluster">
<title>cluster_AppModule_imports</title>
<polygon fill="none" stroke="black" points="213,-108.8 213,-160.8 317,-160.8 317,-108.8 213,-108.8"/>
</g>
<g id="clust6" class="cluster">
<title>cluster_AppModule_providers</title>
<polygon fill="none" stroke="black" points="16,-40.8 16,-92.8 338,-92.8 338,-40.8 16,-40.8"/>
</g>
<g id="clust7" class="cluster">
<title>cluster_AuthModule</title>
<polygon fill="none" stroke="black" stroke-dasharray="1,5" points="354,-32.8 354,-100.8 500,-100.8 500,-32.8 354,-32.8"/>
</g>
<g id="clust12" class="cluster">
<title>cluster_AuthModule_providers</title>
<polygon fill="none" stroke="black" points="362,-40.8 362,-92.8 492,-92.8 492,-40.8 362,-40.8"/>
</g>
<!-- AuthModule -->
<g id="node1" class="node">
<title>AuthModule</title>
<polygon fill="#8dd3c7" stroke="black" points="308.55,-152.8 305.55,-156.8 284.55,-156.8 281.55,-152.8 221.45,-152.8 221.45,-116.8 308.55,-116.8 308.55,-152.8"/>
<text text-anchor="middle" x="265" y="-130.6" font-family="Times,serif" font-size="14.00">AuthModule</text>
</g>
<!-- AppModule -->
<g id="node2" class="node">
<title>AppModule</title>
<polygon fill="#8dd3c7" stroke="black" points="243.66,-217.8 240.66,-221.8 219.66,-221.8 216.66,-217.8 160.34,-217.8 160.34,-181.8 243.66,-181.8 243.66,-217.8"/>
<text text-anchor="middle" x="202" y="-195.6" font-family="Times,serif" font-size="14.00">AppModule</text>
</g>
<!-- AuthModule&#45;&gt;AppModule -->
<g id="edge1" class="edge">
<title>AuthModule&#45;&gt;AppModule</title>
<path fill="none" stroke="black" d="M232.53,-152.91C232.53,-152.91 232.53,-171.79 232.53,-171.79"/>
<polygon fill="black" stroke="black" points="229.03,-171.79 232.53,-181.79 236.03,-171.79 229.03,-171.79"/>
</g>
<!-- ChallengeService -->
<g id="node3" class="node">
<title>ChallengeService</title>
<ellipse fill="#fdb462" stroke="black" cx="103" cy="-66.8" rx="79.29" ry="18"/>
<text text-anchor="middle" x="103" y="-62.6" font-family="Times,serif" font-size="14.00">ChallengeService</text>
</g>
<!-- ChallengeService&#45;&gt;AuthModule -->
<g id="edge4" class="edge">
<title>ChallengeService&#45;&gt;AuthModule</title>
<path fill="none" stroke="black" d="M174.82,-74.6C174.82,-92.46 174.82,-134.8 174.82,-134.8 174.82,-134.8 211.23,-134.8 211.23,-134.8"/>
<polygon fill="black" stroke="black" points="211.23,-138.3 221.23,-134.8 211.23,-131.3 211.23,-138.3"/>
</g>
<!-- ChallengeService&#45;&gt;AppModule -->
<g id="edge2" class="edge">
<title>ChallengeService&#45;&gt;AppModule</title>
<path fill="none" stroke="black" d="M167.5,-77.24C167.5,-77.24 167.5,-171.52 167.5,-171.52"/>
<polygon fill="black" stroke="black" points="164,-171.52 167.5,-181.52 171,-171.52 164,-171.52"/>
</g>
<!-- TokenService -->
<g id="node4" class="node">
<title>TokenService</title>
<ellipse fill="#fdb462" stroke="black" cx="265" cy="-66.8" rx="64.83" ry="18"/>
<text text-anchor="middle" x="265" y="-62.6" font-family="Times,serif" font-size="14.00">TokenService</text>
</g>
<!-- TokenService&#45;&gt;AuthModule -->
<g id="edge6" class="edge">
<title>TokenService&#45;&gt;AuthModule</title>
<path fill="none" stroke="black" d="M265,-85.02C265,-85.02 265,-106.53 265,-106.53"/>
<polygon fill="black" stroke="black" points="261.5,-106.53 265,-116.53 268.5,-106.53 261.5,-106.53"/>
</g>
<!-- TokenService&#45;&gt;AppModule -->
<g id="edge3" class="edge">
<title>TokenService&#45;&gt;AppModule</title>
<path fill="none" stroke="black" d="M210.78,-76.8C210.78,-76.8 210.78,-171.36 210.78,-171.36"/>
<polygon fill="black" stroke="black" points="207.28,-171.36 210.78,-181.36 214.28,-171.36 207.28,-171.36"/>
</g>
<!-- JwtStrategy -->
<g id="node5" class="node">
<title>JwtStrategy</title>
<ellipse fill="#fdb462" stroke="black" cx="427" cy="-66.8" rx="56.76" ry="18"/>
<text text-anchor="middle" x="427" y="-62.6" font-family="Times,serif" font-size="14.00">JwtStrategy</text>
</g>
<!-- JwtStrategy&#45;&gt;AuthModule -->
<g id="edge5" class="edge">
<title>JwtStrategy&#45;&gt;AuthModule</title>
<path fill="none" stroke="black" d="M427,-85.02C427,-105.17 427,-134.8 427,-134.8 427,-134.8 318.84,-134.8 318.84,-134.8"/>
<polygon fill="black" stroke="black" points="318.84,-131.3 308.84,-134.8 318.84,-138.3 318.84,-131.3"/>
</g>
</g>
</svg>
