<?xml version="1.0" encoding="UTF-8" standalone="no"?>
<!DOCTYPE svg PUBLIC "-//W3C//DTD SVG 1.1//EN"
 "http://www.w3.org/Graphics/SVG/1.1/DTD/svg11.dtd">
<!-- Generated by graphviz version 2.47.3 (20210619.1520)
 -->
<!-- Title: dependencies Pages: 1 -->
<svg width="653pt" height="174pt"
 viewBox="0.00 0.00 653.00 173.80" xmlns="http://www.w3.org/2000/svg" xmlns:xlink="http://www.w3.org/1999/xlink">
<g id="graph0" class="graph" transform="scale(1 1) rotate(0) translate(4 169.8)">
<title>dependencies</title>
<polygon fill="white" stroke="transparent" points="-4,4 -4,-169.8 649,-169.8 649,4 -4,4"/>
<text text-anchor="middle" x="322.5" y="-8.2" font-family="sans-serif" font-size="14.00">dependencies</text>
<g id="clust1" class="cluster">
<title>cluster_AppModule</title>
<polygon fill="none" stroke="black" stroke-dasharray="1,5" points="8,-32.8 8,-157.8 637,-157.8 637,-32.8 8,-32.8"/>
</g>
<g id="clust6" class="cluster">
<title>cluster_AppModule_providers</title>
<polygon fill="none" stroke="black" points="307,-40.8 307,-92.8 629,-92.8 629,-40.8 307,-40.8"/>
</g>
<g id="clust3" class="cluster">
<title>cluster_AppModule_imports</title>
<polygon fill="none" stroke="black" points="16,-40.8 16,-92.8 299,-92.8 299,-40.8 16,-40.8"/>
</g>
<!-- AuthModule -->
<g id="node1" class="node">
<title>AuthModule</title>
<polygon fill="#8dd3c7" stroke="black" points="290.55,-84.8 287.55,-88.8 266.55,-88.8 263.55,-84.8 203.45,-84.8 203.45,-48.8 290.55,-48.8 290.55,-84.8"/>
<text text-anchor="middle" x="247" y="-62.6" font-family="Times,serif" font-size="14.00">AuthModule</text>
</g>
<!-- AppModule -->
<g id="node3" class="node">
<title>AppModule</title>
<polygon fill="#8dd3c7" stroke="black" points="354.66,-149.8 351.66,-153.8 330.66,-153.8 327.66,-149.8 271.34,-149.8 271.34,-113.8 354.66,-113.8 354.66,-149.8"/>
<text text-anchor="middle" x="313" y="-127.6" font-family="Times,serif" font-size="14.00">AppModule</text>
</g>
<!-- AuthModule&#45;&gt;AppModule -->
<g id="edge1" class="edge">
<title>AuthModule&#45;&gt;AppModule</title>
<path fill="none" stroke="black" d="M280.97,-84.91C280.97,-84.91 280.97,-103.79 280.97,-103.79"/>
<polygon fill="black" stroke="black" points="277.47,-103.79 280.97,-113.79 284.47,-103.79 277.47,-103.79"/>
</g>
<!-- CustomValidatorsModule -->
<g id="node2" class="node">
<title>CustomValidatorsModule</title>
<polygon fill="#8dd3c7" stroke="black" points="185.93,-84.8 182.93,-88.8 161.93,-88.8 158.93,-84.8 24.07,-84.8 24.07,-48.8 185.93,-48.8 185.93,-84.8"/>
<text text-anchor="middle" x="105" y="-62.6" font-family="Times,serif" font-size="14.00">CustomValidatorsModule</text>
</g>
<!-- CustomValidatorsModule&#45;&gt;AppModule -->
<g id="edge2" class="edge">
<title>CustomValidatorsModule&#45;&gt;AppModule</title>
<path fill="none" stroke="black" d="M105,-84.91C105,-104.14 105,-131.8 105,-131.8 105,-131.8 260.91,-131.8 260.91,-131.8"/>
<polygon fill="black" stroke="black" points="260.91,-135.3 270.91,-131.8 260.91,-128.3 260.91,-135.3"/>
</g>
<!-- ChallengeService -->
<g id="node4" class="node">
<title>ChallengeService</title>
<ellipse fill="#fdb462" stroke="black" cx="542" cy="-66.8" rx="79.29" ry="18"/>
<text text-anchor="middle" x="542" y="-62.6" font-family="Times,serif" font-size="14.00">ChallengeService</text>
</g>
<!-- ChallengeService&#45;&gt;AppModule -->
<g id="edge3" class="edge">
<title>ChallengeService&#45;&gt;AppModule</title>
<path fill="none" stroke="black" d="M542,-84.91C542,-104.14 542,-131.8 542,-131.8 542,-131.8 364.74,-131.8 364.74,-131.8"/>
<polygon fill="black" stroke="black" points="364.74,-128.3 354.74,-131.8 364.74,-135.3 364.74,-128.3"/>
</g>
<!-- TokenService -->
<g id="node5" class="node">
<title>TokenService</title>
<ellipse fill="#fdb462" stroke="black" cx="380" cy="-66.8" rx="64.83" ry="18"/>
<text text-anchor="middle" x="380" y="-62.6" font-family="Times,serif" font-size="14.00">TokenService</text>
</g>
<!-- TokenService&#45;&gt;AppModule -->
<g id="edge4" class="edge">
<title>TokenService&#45;&gt;AppModule</title>
<path fill="none" stroke="black" d="M335.08,-79.95C335.08,-79.95 335.08,-103.49 335.08,-103.49"/>
<polygon fill="black" stroke="black" points="331.58,-103.49 335.08,-113.49 338.58,-103.49 331.58,-103.49"/>
</g>
</g>
</svg>
